<mxfile host="app.diagrams.net" modified="2021-10-28T12:23:52.898Z" agent="5.0 (Macintosh; Intel Mac OS X 10_15_7) AppleWebKit/537.36 (KHTML, like Gecko) Chrome/95.0.4638.54 Safari/537.36" etag="tR8eVbytQoo6NGgTmZUK" version="15.5.9" type="github">
  <diagram id="MiyJqMslN2bP9rE4uXJj" name="Page-1">
    <mxGraphModel dx="946" dy="556" grid="1" gridSize="10" guides="1" tooltips="1" connect="1" arrows="1" fold="1" page="1" pageScale="1" pageWidth="827" pageHeight="1169" background="#fafafa" math="0" shadow="0">
      <root>
        <mxCell id="0" />
        <mxCell id="1" parent="0" />
        <mxCell id="l6mKMpcldoD8pyjWdV9v-6" value="" style="endArrow=none;html=1;rounded=0;strokeWidth=3;entryX=0;entryY=0;entryDx=0;entryDy=0;exitX=1;exitY=1;exitDx=0;exitDy=0;strokeColor=#FF8000;" edge="1" parent="1" source="l6mKMpcldoD8pyjWdV9v-4" target="l6mKMpcldoD8pyjWdV9v-4">
          <mxGeometry width="50" height="50" relative="1" as="geometry">
            <mxPoint x="470" y="330" as="sourcePoint" />
            <mxPoint x="520" y="280" as="targetPoint" />
          </mxGeometry>
        </mxCell>
        <mxCell id="uxLHX47i2WbToCQtHN4r-31" value="" style="verticalLabelPosition=bottom;verticalAlign=top;html=1;shape=mxgraph.flowchart.on-page_reference;fillColor=#000000;" parent="1" vertex="1">
          <mxGeometry x="428" y="190" width="10" height="10" as="geometry" />
        </mxCell>
        <mxCell id="uxLHX47i2WbToCQtHN4r-32" value="" style="verticalLabelPosition=bottom;verticalAlign=top;html=1;shape=mxgraph.flowchart.on-page_reference;fillColor=#000000;" parent="1" vertex="1">
          <mxGeometry x="428" y="230" width="10" height="10" as="geometry" />
        </mxCell>
        <mxCell id="uxLHX47i2WbToCQtHN4r-33" value="" style="verticalLabelPosition=bottom;verticalAlign=top;html=1;shape=mxgraph.flowchart.on-page_reference;fillColor=#000000;" parent="1" vertex="1">
          <mxGeometry x="428" y="270" width="10" height="10" as="geometry" />
        </mxCell>
        <mxCell id="uxLHX47i2WbToCQtHN4r-34" value="" style="verticalLabelPosition=bottom;verticalAlign=top;html=1;shape=mxgraph.flowchart.on-page_reference;fillColor=#000000;" parent="1" vertex="1">
          <mxGeometry x="428" y="310" width="10" height="10" as="geometry" />
        </mxCell>
        <mxCell id="uxLHX47i2WbToCQtHN4r-35" value="" style="verticalLabelPosition=bottom;verticalAlign=top;html=1;shape=mxgraph.flowchart.on-page_reference;fillColor=#000000;" parent="1" vertex="1">
          <mxGeometry x="428" y="350" width="10" height="10" as="geometry" />
        </mxCell>
        <mxCell id="uxLHX47i2WbToCQtHN4r-36" value="" style="verticalLabelPosition=bottom;verticalAlign=top;html=1;shape=mxgraph.flowchart.on-page_reference;fillColor=#000000;" parent="1" vertex="1">
          <mxGeometry x="468" y="190" width="10" height="10" as="geometry" />
        </mxCell>
        <mxCell id="uxLHX47i2WbToCQtHN4r-37" value="" style="verticalLabelPosition=bottom;verticalAlign=top;html=1;shape=mxgraph.flowchart.on-page_reference;fillColor=#000000;" parent="1" vertex="1">
          <mxGeometry x="468" y="230" width="10" height="10" as="geometry" />
        </mxCell>
        <mxCell id="uxLHX47i2WbToCQtHN4r-38" value="" style="verticalLabelPosition=bottom;verticalAlign=top;html=1;shape=mxgraph.flowchart.on-page_reference;fillColor=#000000;" parent="1" vertex="1">
          <mxGeometry x="468" y="270" width="10" height="10" as="geometry" />
        </mxCell>
        <mxCell id="uxLHX47i2WbToCQtHN4r-39" value="" style="verticalLabelPosition=bottom;verticalAlign=top;html=1;shape=mxgraph.flowchart.on-page_reference;fillColor=#000000;" parent="1" vertex="1">
          <mxGeometry x="468" y="310" width="10" height="10" as="geometry" />
        </mxCell>
        <mxCell id="uxLHX47i2WbToCQtHN4r-40" value="" style="verticalLabelPosition=bottom;verticalAlign=top;html=1;shape=mxgraph.flowchart.on-page_reference;fillColor=#000000;" parent="1" vertex="1">
          <mxGeometry x="468" y="350" width="10" height="10" as="geometry" />
        </mxCell>
        <mxCell id="uxLHX47i2WbToCQtHN4r-41" value="" style="verticalLabelPosition=bottom;verticalAlign=top;html=1;shape=mxgraph.flowchart.on-page_reference;fillColor=#000000;" parent="1" vertex="1">
          <mxGeometry x="508" y="190" width="10" height="10" as="geometry" />
        </mxCell>
        <mxCell id="uxLHX47i2WbToCQtHN4r-42" value="" style="verticalLabelPosition=bottom;verticalAlign=top;html=1;shape=mxgraph.flowchart.on-page_reference;fillColor=#000000;" parent="1" vertex="1">
          <mxGeometry x="508" y="230" width="10" height="10" as="geometry" />
        </mxCell>
        <mxCell id="uxLHX47i2WbToCQtHN4r-43" value="" style="verticalLabelPosition=bottom;verticalAlign=top;html=1;shape=mxgraph.flowchart.on-page_reference;fillColor=#000000;" parent="1" vertex="1">
          <mxGeometry x="508" y="270" width="10" height="10" as="geometry" />
        </mxCell>
        <mxCell id="uxLHX47i2WbToCQtHN4r-44" value="" style="verticalLabelPosition=bottom;verticalAlign=top;html=1;shape=mxgraph.flowchart.on-page_reference;fillColor=#000000;" parent="1" vertex="1">
          <mxGeometry x="508" y="310" width="10" height="10" as="geometry" />
        </mxCell>
        <mxCell id="uxLHX47i2WbToCQtHN4r-45" value="" style="verticalLabelPosition=bottom;verticalAlign=top;html=1;shape=mxgraph.flowchart.on-page_reference;fillColor=#000000;" parent="1" vertex="1">
          <mxGeometry x="508" y="350" width="10" height="10" as="geometry" />
        </mxCell>
        <mxCell id="uxLHX47i2WbToCQtHN4r-46" value="" style="verticalLabelPosition=bottom;verticalAlign=top;html=1;shape=mxgraph.flowchart.on-page_reference;fillColor=#000000;" parent="1" vertex="1">
          <mxGeometry x="548" y="190" width="10" height="10" as="geometry" />
        </mxCell>
        <mxCell id="uxLHX47i2WbToCQtHN4r-47" value="" style="verticalLabelPosition=bottom;verticalAlign=top;html=1;shape=mxgraph.flowchart.on-page_reference;fillColor=#000000;" parent="1" vertex="1">
          <mxGeometry x="548" y="230" width="10" height="10" as="geometry" />
        </mxCell>
        <mxCell id="uxLHX47i2WbToCQtHN4r-48" value="" style="verticalLabelPosition=bottom;verticalAlign=top;html=1;shape=mxgraph.flowchart.on-page_reference;fillColor=#000000;" parent="1" vertex="1">
          <mxGeometry x="548" y="270" width="10" height="10" as="geometry" />
        </mxCell>
        <mxCell id="uxLHX47i2WbToCQtHN4r-49" value="" style="verticalLabelPosition=bottom;verticalAlign=top;html=1;shape=mxgraph.flowchart.on-page_reference;fillColor=#000000;" parent="1" vertex="1">
          <mxGeometry x="548" y="310" width="10" height="10" as="geometry" />
        </mxCell>
        <mxCell id="uxLHX47i2WbToCQtHN4r-50" value="" style="verticalLabelPosition=bottom;verticalAlign=top;html=1;shape=mxgraph.flowchart.on-page_reference;fillColor=#000000;" parent="1" vertex="1">
          <mxGeometry x="548" y="350" width="10" height="10" as="geometry" />
        </mxCell>
        <mxCell id="uxLHX47i2WbToCQtHN4r-51" value="" style="verticalLabelPosition=bottom;verticalAlign=top;html=1;shape=mxgraph.flowchart.on-page_reference;fillColor=#000000;" parent="1" vertex="1">
          <mxGeometry x="588" y="190" width="10" height="10" as="geometry" />
        </mxCell>
        <mxCell id="uxLHX47i2WbToCQtHN4r-52" value="" style="verticalLabelPosition=bottom;verticalAlign=top;html=1;shape=mxgraph.flowchart.on-page_reference;fillColor=#000000;" parent="1" vertex="1">
          <mxGeometry x="588" y="230" width="10" height="10" as="geometry" />
        </mxCell>
        <mxCell id="uxLHX47i2WbToCQtHN4r-53" value="" style="verticalLabelPosition=bottom;verticalAlign=top;html=1;shape=mxgraph.flowchart.on-page_reference;fillColor=#000000;" parent="1" vertex="1">
          <mxGeometry x="588" y="270" width="10" height="10" as="geometry" />
        </mxCell>
        <mxCell id="uxLHX47i2WbToCQtHN4r-54" value="" style="verticalLabelPosition=bottom;verticalAlign=top;html=1;shape=mxgraph.flowchart.on-page_reference;fillColor=#000000;" parent="1" vertex="1">
          <mxGeometry x="588" y="310" width="10" height="10" as="geometry" />
        </mxCell>
        <mxCell id="uxLHX47i2WbToCQtHN4r-55" value="" style="verticalLabelPosition=bottom;verticalAlign=top;html=1;shape=mxgraph.flowchart.on-page_reference;fillColor=#000000;" parent="1" vertex="1">
          <mxGeometry x="588" y="350" width="10" height="10" as="geometry" />
        </mxCell>
        <mxCell id="uxLHX47i2WbToCQtHN4r-56" value="" style="verticalLabelPosition=bottom;verticalAlign=top;html=1;shape=mxgraph.flowchart.on-page_reference;fillColor=#000000;" parent="1" vertex="1">
          <mxGeometry x="628" y="190" width="10" height="10" as="geometry" />
        </mxCell>
        <mxCell id="uxLHX47i2WbToCQtHN4r-57" value="" style="verticalLabelPosition=bottom;verticalAlign=top;html=1;shape=mxgraph.flowchart.on-page_reference;fillColor=#000000;" parent="1" vertex="1">
          <mxGeometry x="628" y="230" width="10" height="10" as="geometry" />
        </mxCell>
        <mxCell id="uxLHX47i2WbToCQtHN4r-58" value="" style="verticalLabelPosition=bottom;verticalAlign=top;html=1;shape=mxgraph.flowchart.on-page_reference;fillColor=#000000;" parent="1" vertex="1">
          <mxGeometry x="628" y="270" width="10" height="10" as="geometry" />
        </mxCell>
        <mxCell id="uxLHX47i2WbToCQtHN4r-59" value="" style="verticalLabelPosition=bottom;verticalAlign=top;html=1;shape=mxgraph.flowchart.on-page_reference;fillColor=#000000;" parent="1" vertex="1">
          <mxGeometry x="628" y="310" width="10" height="10" as="geometry" />
        </mxCell>
        <mxCell id="uxLHX47i2WbToCQtHN4r-60" value="" style="verticalLabelPosition=bottom;verticalAlign=top;html=1;shape=mxgraph.flowchart.on-page_reference;fillColor=#000000;" parent="1" vertex="1">
          <mxGeometry x="628" y="350" width="10" height="10" as="geometry" />
        </mxCell>
        <mxCell id="uxLHX47i2WbToCQtHN4r-61" value="" style="endArrow=none;html=1;exitX=1;exitY=0.5;exitDx=0;exitDy=0;exitPerimeter=0;entryX=0;entryY=0.5;entryDx=0;entryDy=0;entryPerimeter=0;strokeWidth=3;" parent="1" source="uxLHX47i2WbToCQtHN4r-35" target="uxLHX47i2WbToCQtHN4r-40" edge="1">
          <mxGeometry width="50" height="50" relative="1" as="geometry">
            <mxPoint x="480" y="280" as="sourcePoint" />
            <mxPoint x="530" y="230" as="targetPoint" />
          </mxGeometry>
        </mxCell>
        <mxCell id="uxLHX47i2WbToCQtHN4r-63" value="" style="endArrow=none;html=1;exitX=1;exitY=0.5;exitDx=0;exitDy=0;exitPerimeter=0;entryX=0;entryY=0.5;entryDx=0;entryDy=0;entryPerimeter=0;strokeWidth=3;" parent="1" source="uxLHX47i2WbToCQtHN4r-40" target="uxLHX47i2WbToCQtHN4r-55" edge="1">
          <mxGeometry width="50" height="50" relative="1" as="geometry">
            <mxPoint x="448" y="365" as="sourcePoint" />
            <mxPoint x="478" y="365" as="targetPoint" />
          </mxGeometry>
        </mxCell>
        <mxCell id="uxLHX47i2WbToCQtHN4r-65" value="" style="endArrow=none;html=1;exitX=0.5;exitY=1;exitDx=0;exitDy=0;exitPerimeter=0;entryX=0.5;entryY=0;entryDx=0;entryDy=0;entryPerimeter=0;strokeWidth=3;" parent="1" source="uxLHX47i2WbToCQtHN4r-52" target="uxLHX47i2WbToCQtHN4r-55" edge="1">
          <mxGeometry width="50" height="50" relative="1" as="geometry">
            <mxPoint x="524" y="280" as="sourcePoint" />
            <mxPoint x="524" y="310" as="targetPoint" />
          </mxGeometry>
        </mxCell>
        <mxCell id="uxLHX47i2WbToCQtHN4r-70" value="" style="endArrow=none;html=1;strokeWidth=3;entryX=0;entryY=0.5;entryDx=0;entryDy=0;entryPerimeter=0;" parent="1" target="uxLHX47i2WbToCQtHN4r-57" edge="1">
          <mxGeometry width="50" height="50" relative="1" as="geometry">
            <mxPoint x="590" y="235" as="sourcePoint" />
            <mxPoint x="603" y="250" as="targetPoint" />
          </mxGeometry>
        </mxCell>
        <mxCell id="uxLHX47i2WbToCQtHN4r-71" value="" style="endArrow=classic;html=1;strokeWidth=3;exitX=0.5;exitY=0;exitDx=0;exitDy=0;exitPerimeter=0;entryX=0.5;entryY=1;entryDx=0;entryDy=0;entryPerimeter=0;" parent="1" source="uxLHX47i2WbToCQtHN4r-57" target="uxLHX47i2WbToCQtHN4r-56" edge="1">
          <mxGeometry width="50" height="50" relative="1" as="geometry">
            <mxPoint x="480" y="280" as="sourcePoint" />
            <mxPoint x="530" y="230" as="targetPoint" />
          </mxGeometry>
        </mxCell>
        <mxCell id="uxLHX47i2WbToCQtHN4r-74" value="" style="shape=image;verticalLabelPosition=bottom;labelBackgroundColor=#ffffff;verticalAlign=top;aspect=fixed;imageAspect=0;image=data:image/png,iVBORw0KGgoAAAANSUhEUgAAABQAAAAYCAYAAAD6S912AAAB40lEQVRIDaWVPUiVcRTGf2KKUpBCg+QmLQ0RDYqCoi0FLk1KLQ19LAVuaopBi6ukILhEYxq4aToatNTUWENLBUEfQx+gYpk83PO/93nfe98Lcg9c7vl4/s97/uc957xQLW1AP9ALtFaHOQMMAZeA9hrxjOs88An4H7/3wEAguoF14NDiP4CJDIMZTcAbQCQ9wIqRXgQ+Al+A68Ap4CrwOzAzxlNWRyJ4OTw3LRNl/BLoLKNLylpgDgDdICNPI7vkfGCE7yKrFEv/9wzzMDn1r+t+AxbMuWHga+Z3ddQwqx7oAP4Cw+FsBn4G+Bcgu5bcMsJXecAJc6hl0pt+Yf68umi47XzQ7UkDTnkgp7823JNcLGNuGrAvE6kYpwG93XST25VQVtPVVTcB69VvzMhU/64sTcVSRump9er33HBLlePV2rQBi+p3FtgP3FdAXVIoW0Z4pwD1zDCFtdNZ1S/Np669U4PwrpE9jqGoASu5tLZS/fZis8wDJwGttUfAvxiC+4UsFvD5lT4XBKrXbjzsLXDFztRV1e0pw9R/54AbwDhwoe7pXLAF+BOEmuOi+c0dKza1mVN2mpSGZdYI1YsNi4qdMhxshE295MtUpOq/5fh+HJtbjfw9vnYfgM+xveUX6bHkCJP6kSoMFA38AAAAAElFTkSuQmCC;" parent="1" vertex="1">
          <mxGeometry x="638" y="160" width="20" height="24" as="geometry" />
        </mxCell>
        <mxCell id="45NoD6-0Fcyy6hF08GnC-1" value="" style="shape=image;verticalLabelPosition=bottom;labelBackgroundColor=#ffffff;verticalAlign=top;aspect=fixed;imageAspect=0;image=data:image/png,iVBORw0KGgoAAAANSUhEUgAAABAAAAARCAYAAADUryzEAAABPElEQVQ4EX2Tu0oEQRBFjw/WQBAURHyEBpoIJmJiJiLsNxgYiKCYKCYmJuI3aKCRaKw/oJmZgixGRiaiue8nJX13787OTMNQNfeequkauqF8DQDT6ekuRxtuB7AG3AC/9nwD18B8A23NBoHzVPQELAM9QD+wDfwkb6W1FGaBxwRcAUM50F7yv4AJ98eA12Q+AMNuWj6ZmBjtUHrMfGlGVUZO7DXuTv6mibH1sjVi7IvASPS3VyUWxDljY+S24FQcf7hodvXbMv5eohrUJJTEC2twKk4NDiQUxD7g0xosiFODDQkFcd2Kb4EucWqwJCEnVoCYOdg4RFPOqMGOi5a3A8f29V3z/tM4edEkttWZNYF9Kz4CYjdNawZ4T1AcT13bUeAk6c/AYlNV5iVmilMYO3mzS/UBnAHjGb7++geFrmIXR+g2TgAAAABJRU5ErkJggg==;" parent="1" vertex="1">
          <mxGeometry x="414" y="360" width="16" height="17" as="geometry" />
        </mxCell>
        <mxCell id="l6mKMpcldoD8pyjWdV9v-3" value="" style="endArrow=classic;html=1;rounded=0;strokeWidth=3;entryX=0.145;entryY=0.855;entryDx=0;entryDy=0;entryPerimeter=0;exitX=0.145;exitY=0.855;exitDx=0;exitDy=0;exitPerimeter=0;" edge="1" parent="1" source="uxLHX47i2WbToCQtHN4r-35" target="uxLHX47i2WbToCQtHN4r-56">
          <mxGeometry width="50" height="50" relative="1" as="geometry">
            <mxPoint x="440" y="350" as="sourcePoint" />
            <mxPoint x="490" y="290" as="targetPoint" />
          </mxGeometry>
        </mxCell>
        <mxCell id="l6mKMpcldoD8pyjWdV9v-4" value="" style="rounded=0;whiteSpace=wrap;html=1;fillColor=none;strokeWidth=3;strokeColor=#FF8000;opacity=70;" vertex="1" parent="1">
          <mxGeometry x="450" y="212" width="143" height="143" as="geometry" />
        </mxCell>
        <mxCell id="l6mKMpcldoD8pyjWdV9v-5" value="" style="verticalLabelPosition=bottom;verticalAlign=top;html=1;shape=mxgraph.flowchart.on-page_reference;fillColor=#FF8000;strokeColor=#FF8000;" vertex="1" parent="1">
          <mxGeometry x="517" y="279.5" width="10" height="10" as="geometry" />
        </mxCell>
        <mxCell id="l6mKMpcldoD8pyjWdV9v-7" value="" style="shape=image;verticalLabelPosition=bottom;labelBackgroundColor=#ffffff;verticalAlign=top;aspect=fixed;imageAspect=0;image=data:image/png,iVBORw0KGgoAAAANSUhEUgAAAKsAAAAsCAYAAAAaXUh5AAAL50lEQVR4Ae1dCYwdNxke6PPv3aTc4irlviTKJS613OIm3IhSxKkCTaEBQUqU7O4bO5NyVS2XGgrhbJEiSAEB4qrKfZUzLUEqlHKUkLSlESmklNB03/gZfZ7xPI+f5x2zEyXbnZVW9nj+/7f9zzee379/+0VR+3fENaDXR7M6mT1eJ9Htj3hjGmiATqKOXlh9d92dvdc04urymTp0Et1WSfYhJemzSvJPKsk+qgT7oJL0PhXTZhVTV8UklKSzlKSzlWAfVoKfn9GCh30AMqZp8K2dVkm+rS/Zd5Sky5WgvytBB5Ukjf9U0s+XW/+V4G/rC/pWKulXStJflKQDSlI/71NfJ6uOC/WpLl9IlinTc+zxVpE1U6WT6M6VFazAG0rQP0bo8urlphIlaceI/mjdnb13qE91+UKyTJleGzElaKMS9H6MmHiDlKBeReP2KEFfUJJ9xIyykt6TdtkbKoWv0BvmS5Tp8pKALpcdWFNBr1aSndeX9EUl6EYfG1Vgrcs3FWxSSb/2G6QknTOVkJbYaCDt0ms8XS47sLqPUiczD1CSDrl90ptn7uPShPJ1+UKyijKdRKQk/c9tDEYHnUR3LIjazMQa0PPRXUu6lLSswYqOK0G/d/s0CViXwlepbL2582S3Icinki6tZGhvjNRA/vKbyVWu12UPVkwSXYxMCta6fJUKVoJityEmL+i9lQztjZEaMHOC3BNwKwLrpS5GqmxWXzEY9Orw+XKK675k33MFIt+T/NkFQZuZSgMtWAfqahSsQXtV0qJOolWDKtvcNBpowTrQVrNgbe3VgWYbyrVgHSiyUbC29upAsU3lWrAONNkoWFt7daDYpnItWAeabAysxl511rDzSVZrrw50XSs3Dqx6jj02FeyNZgVR8k8rQTIV9Cqd0MNqVRhFkY6i26QJvVwJ/nEzAAn6G2IU+pK+jZVHrCzpTdEd6sqvC7q6fEPt1POdJ/leAAgfImwLptJAFVjTBf78VNIvfZ27133BfthL+HOmqTBN+AuVpCtcOUrQDUrSf7yyfytBc3WCkOqCri7fUP9NdFXZH6hV618d0tO0BQGw7kakmgVOKuk3SrAztKBH6IQemQr2ehXTZfY+0r6gr07ikUm79BIlKQVPKvlP0i5/EcL40GaMtjphjwvIvnjasMW6oKvLN6TzvmDfdRWEfOtfHVLT1AUBsGarWYJuTmN2KkDkC0WZEnSB9zx2WuD59LjWMX+wEnRzznONTlbfI0iXRB2A35Xdl/SVEG1VWV3Q1eUrtcMotLVXSzpp6iIIVkE9jHqj6tAnR8dkEW5ZHCzA1ZfsB1WfbRXz9S4AEaaIuIRQHXph1T3zmNRiGRijcog2VFYXdHX5Sm1o7dWSOhq9CII15usnqQRR9Sqm33kg3Bji7Uv6eokOpkDMTg3RoswE1ztmX1/Sl6to/fK6oKvLV6q/tVdL6mj0IgTWaWbiWUzoYHRFRFwoAi4I1i6dUtWZVNArPXDvqqL1y+uCri5fqf7WXi2po9GLIFiTqDNpJdi7pSQtloAV83U+fxqz00o0gm4cNSnTgk7w6Pf6Mquu64KuLl/RDqPM1l4t9NF0ZqlgRXtSSb8oAUvSzlA7TaC3oM8pScm4sD2MziWZgg6GZIbK6oKuLl/RBp10nlhqdAPxqwgZU4K/M/S5KipeIZkmwGq2kzj2JUbaqolWSK1mRyncYglfAzsW/tVs06djXgi6JcQbKqsLurp8RRuUoAUfrEv1r1rlpl16WVHRCs00AVYl+Cf8Z4Rt3aNUCjeXEvzMVPKfDu38KAPfutKOfrDmW4YLFwaUshT/Krbl5pvkFFwkoxS6Eu41AlZsgfcAhi9iSH/Yx68kbR/aqJjtuN2eCvbmXjLz9KFdzUf7yGoU2bC9as4ayFZdLgkpc6WVNQJWQVuGwDrfOcnXpYrZ6UrSfz3aK0yswcnRMS49PBIluqMerA3bq8YvKOhaKCEV9FpXOSs13whYs0NISl8/nczcz9Wpivm7SuAzIzHfpt8ecZfO5pcdWJu2V1XM1xmFCbpplNukUFgyezyUnNu4u5Wkf+WnflyI0zz0hmi1pR2Xml2kZmTh28xW8mx/+24TdRTzddPIGlfXNPcbAaugizwgLrogROSWc0KKATX6HVrKtW1fdmBt0l7Fm64E3ZQr9UKrlKo0TeileTRQacQoPRTB9mGSAF9jlZzMlOFn+suHJTlmlGHXV9l5VbKbKG8IrFe6/cFzc9sW8JPvrzrSx/IhdsCVqTwzQEna1Zf0TUvvpnVn9XX5olyJvn1TK34Vb3BfsO/bzvfkzDPdzvl5b0dCiiXFvqAv5SPiLVZOkQraiwmBL8ccnCBo8CARCidoS7rAX4CHgfvwPaaS/yyXdaiXzDzLl3M4ryvASpPWqZNj71bowU6yYna65ccIayOtCjrBttr7VSlCDwt6yB0Ga6oE/TnEXxd0dfkiPd85qdTYJfhXS+YEgDXioDaEwdmZKkYE3Z25r6sQPRfdSQn6jN82uF9cV5hO6OFK0nU5nUKgsZ6P7uLKsnljS0s6J6e9rorO0jeZhsE62u3k1q9imi/pIqbL0B9LM7QSlcUEvMner0qH5B7NYG0iHiADgTmB0P2Un12lIIzAxUEHgm0dZVP1Ev68wMx2EW41Hc/cX0nabx4iIpgSekVVnW65ylZ3MIq82y0/nPkQWBHPOkmd2YvL9jlgPQRwurw65g907mfPQbAzXBo/nz0H/uMSn6CepdMbo9vl9/5gy9zUX1HzJ3surZuvxYfG+kG4aNyk/lXT2SzQ94+lDkvSo7Zj6Jg/1NALulIn0YzbkVBeJ52nDgEWMZuCrKmwCNs3xBsqM45yHNeI0T8QRxriWWpZGKzUV4K9ZZRsnMw49Ixi2hTiUZL2uM8BX6wQnS1Tgm9w6W0eZhNodMIejTKYZpbHTZWkqy0PUp2wJ7j3q/IT8WGmDBAhUjxN+IvV8OzSvJE9yZ+LIF6d8AcV/+ba8K3J9wpdoDDxsfZTOQ2uWdvG20ifadxaer7zNP8gsKJuwTdY2ZOmdnSd9BSRSeVW0Q2BNabf5u0HYIMjYG6nXl70E2ehCn4+YlxD9eBL4dDmoyst+LRmkMFyaxYYs4j6Pb7t8OIoSZ835YLmIAOLOzl+TsTqpsejzfYbYEfQCRiQbL21+Hzhh+065u+wDQ2lNobS7VCIzi8LhMmZB6KT6Fifdtw1vAvoP870GkfbxH0XrJhdm6+aYFvtM8AoiJdXz3eeYjb5SXae9zXZPW7CamRis2F54MDWlh+lXfY6TCqVYGtzt6CZTOGLlLWFrvL58us9eGmgg3HnrPr8Vm+1+CpHJq9zfqVTXQu6FjaWbWgoVZJ/DDLrBLiERo++pK+NmswF2xCzt6INvWTmGaH7TZehfUrwf8J00Ql/iJWPr5hyPRnDz+IATiGH/Wh5xqVYRsWn205gQ88PsQKuCy+3eXd5tDv1JvYoW58BHc7shWsy68teJeiv5hRsnOwt2fW56/AQPDtL5bP8RzS1k7o6oxq2KHsKzT53E05WbMdxhDrkjNrPZGkPd4rPOj6d5suRfV7Pgi2LFwkjct364bbLXga2Nn/JzaHPOmGPqZJptoQnfA02LlbRrKhyzNoN4ARtmabj+AwO+RLdkUhQPIk8M8sVtBcjwST0Lc0K1oAx3rEMKujguOBgqyZjbw0ON96P0UFJGvJCYKHB8lSlSvBP5aPzjiqatrzVQKEBJehcAMYsCIywx/KZ62nO9uID2NgIQVhI8N01+Yh9kZ0UFBWCHltD8CszGI3xonhBIC5tm281UGgA/tXixBBBV/l2FCYkAGXpdw0E2wffXyHE+AJXHWcOiHDNgQyMWHI9F24ybHfOfxbpT/mICrAad4wrq823GqjUAEwANfA3YqJ0TV/QN/I1fD9eYUeVTzQbMc3EC7/LlE+4KtJsNlvruJzKjrQ3VoYGELJnfggOrhAfaIJu6Au62H72x2nEbH6DYzz0+1M4+cS4a9iJ4+S091sNjNQATi9EUApOBMHqmh/YMpI5cBPLlPAjpl06BSt2S3EBBcS3RYdZA/8HBznLxxVqaf4AAAAASUVORK5CYII=;" vertex="1" parent="1">
          <mxGeometry x="457.38" y="370" width="128.25" height="33" as="geometry" />
        </mxCell>
      </root>
    </mxGraphModel>
  </diagram>
</mxfile>
